<svg width="145" height="87" viewBox="0 0 145 87" fill="none" xmlns="http://www.w3.org/2000/svg">
<rect width="90.7347" height="48.8789" fill="#E63946"/>
<rect x="35.0955" y="18.125" width="109.904" height="68.875" fill="#457B9D"/>
<rect y="54.5625" width="90.7347" height="18.9453" fill="#1D3557"/>
<path d="M52.1252 61.2266H49.7122L48.3586 55.9766C48.3085 55.7897 48.2219 55.4046 48.0989 54.8213C47.9804 54.2334 47.912 53.8392 47.8938 53.6387C47.8665 53.8848 47.7981 54.2812 47.6887 54.8281C47.5793 55.3704 47.495 55.7578 47.4358 55.9902L46.0891 61.2266H43.6829L41.1331 51.2324H43.218L44.4963 56.6875C44.7196 57.6947 44.8814 58.5674 44.9817 59.3057C45.009 59.0459 45.0706 58.6449 45.1663 58.1025C45.2665 57.5557 45.3599 57.1318 45.4465 56.8311L46.9026 51.2324H48.9055L50.3616 56.8311C50.4254 57.0817 50.5051 57.4645 50.6008 57.9795C50.6965 58.4945 50.7694 58.9365 50.8196 59.3057C50.8652 58.9502 50.9381 58.5081 51.0383 57.9795C51.1386 57.4463 51.2297 57.0156 51.3118 56.6875L52.5833 51.2324H54.6682L52.1252 61.2266ZM61.6819 61.2266H55.926V51.2324H61.6819V52.9688H58.0452V55.1631H61.429V56.8994H58.0452V59.4766H61.6819V61.2266ZM69.8918 61.2266L69.1672 58.8477H65.5237L64.7991 61.2266H62.5159L66.0432 51.1914H68.634L72.175 61.2266H69.8918ZM68.6614 57.0703C67.9915 54.9147 67.6132 53.6956 67.5266 53.4131C67.4446 53.1305 67.3853 52.9072 67.3489 52.7432C67.1985 53.3265 66.7678 54.7689 66.0569 57.0703H68.6614ZM77.2952 61.2266H75.176V52.9961H72.4622V51.2324H80.009V52.9961H77.2952V61.2266ZM89.7366 61.2266H87.6243V56.9131H83.6663V61.2266H81.5471V51.2324H83.6663V55.1494H87.6243V51.2324H89.7366V61.2266ZM98.0217 61.2266H92.2659V51.2324H98.0217V52.9688H94.385V55.1631H97.7688V56.8994H94.385V59.4766H98.0217V61.2266ZM102.233 55.6689H102.916C103.586 55.6689 104.081 55.5573 104.4 55.334C104.719 55.1107 104.878 54.7598 104.878 54.2812C104.878 53.8073 104.714 53.4701 104.386 53.2695C104.062 53.069 103.559 52.9688 102.875 52.9688H102.233V55.6689ZM102.233 57.3916V61.2266H100.114V51.2324H103.026C104.384 51.2324 105.389 51.4808 106.04 51.9775C106.692 52.4697 107.018 53.2194 107.018 54.2266C107.018 54.8145 106.856 55.3385 106.532 55.7988C106.209 56.2546 105.751 56.6123 105.158 56.8721C106.662 59.1188 107.642 60.5703 108.098 61.2266H105.746L103.361 57.3916H102.233Z" fill="white"/>
<path d="M91.8597 72.0938H89.1663L84.8187 64.5332H84.7571C84.8437 65.8685 84.887 66.821 84.887 67.3906V72.0938H82.9935V62.0996H85.6663L90.0071 69.585H90.055C89.9866 68.2861 89.9525 67.3678 89.9525 66.8301V62.0996H91.8597V72.0938ZM103.453 67.083C103.453 68.7373 103.043 70.0088 102.223 70.8975C101.403 71.7861 100.227 72.2305 98.6956 72.2305C97.1644 72.2305 95.9886 71.7861 95.1683 70.8975C94.348 70.0088 93.9378 68.7327 93.9378 67.0693C93.9378 65.4059 94.348 64.1367 95.1683 63.2617C95.9931 62.3822 97.1735 61.9424 98.7093 61.9424C100.245 61.9424 101.419 62.3844 102.23 63.2686C103.046 64.1527 103.453 65.4242 103.453 67.083ZM96.1595 67.083C96.1595 68.1995 96.3714 69.0404 96.7952 69.6055C97.2191 70.1706 97.8525 70.4531 98.6956 70.4531C100.386 70.4531 101.232 69.3298 101.232 67.083C101.232 64.8317 100.391 63.7061 98.7093 63.7061C97.8662 63.7061 97.2304 63.9909 96.8021 64.5605C96.3737 65.1257 96.1595 65.9665 96.1595 67.083ZM115.259 72.0938H112.846L111.492 66.8438C111.442 66.6569 111.356 66.2718 111.233 65.6885C111.114 65.1006 111.046 64.7064 111.028 64.5059C111 64.752 110.932 65.1484 110.823 65.6953C110.713 66.2376 110.629 66.625 110.57 66.8574L109.223 72.0938H106.817L104.267 62.0996H106.352L107.63 67.5547C107.853 68.5618 108.015 69.4346 108.116 70.1729C108.143 69.9131 108.204 69.512 108.3 68.9697C108.4 68.4229 108.494 67.999 108.58 67.6982L110.036 62.0996H112.039L113.495 67.6982C113.559 67.9489 113.639 68.3317 113.735 68.8467C113.83 69.3617 113.903 69.8037 113.953 70.1729C113.999 69.8174 114.072 69.3753 114.172 68.8467C114.272 68.3135 114.364 67.8828 114.446 67.5547L115.717 62.0996H117.802L115.259 72.0938Z" fill="white"/>
</svg>
